<svg xmlns="http://www.w3.org/2000/svg" version="1.1" xmlns:xlink="http://www.w3.org/1999/xlink" xmlns:svgjs="http://svgjs.dev/svgjs" width="1500" height="1500" viewBox="0 0 1500 1500"><rect width="1500" height="1500" fill="#ffffff"></rect><g transform="matrix(0.6666666666666666,0,0,0.6666666666666666,249.79872883775295,318.68350644335726)"><svg viewBox="0 0 286 247" data-background-color="#ffffff" preserveAspectRatio="xMidYMid meet" height="1295" width="1500" xmlns="http://www.w3.org/2000/svg" xmlns:xlink="http://www.w3.org/1999/xlink"><g id="tight-bounds" transform="matrix(1,0,0,1,0.05790042980675025,-0.09997365579206985)"><svg viewBox="0 0 285.8843881071099 247.2" height="247.2" width="285.8843881071099"><g><svg viewBox="0 0 285.8843881071099 247.2" height="247.2" width="285.8843881071099"><g><svg viewBox="0 0 285.8843881071099 247.2" height="247.2" width="285.8843881071099"><g id="textblocktransform"><svg viewBox="0 0 285.8843881071099 247.2" height="247.2" width="285.8843881071099" id="textblock"><g><svg viewBox="0 0 285.8843881071099 247.2" height="247.2" width="285.8843881071099"><path d="M285.215 53.02C283.871 27.36 280.041 20.227 280.041 20.227 268.281-6.202 253.604-0.506 240.419 3.292 217.141 3.446 193.957 9.091 170.733 12.119 121.986 12.581 72.822 4.986 24.317 23.717 19.761 29.464-4.727 24.846 0.81 56.304 2.262 69.39 7.557 83.913 7.396 95.922 8.122 98.026 9.13 93.202 9.56 96.23 11.065 104.39 13.525 100.541 15.541 105.365 12.732 118.246 14.748 128.971 16.67 140.21 13.283 143.135 8.942 141.749 6.993 151.449 6.791 158.479 5.703 157.145 4.506 156.837 3.633 156.632 1.872 157.402 2.168 159.608 3.176 167.152-1.152 171.514 1.563 178.904-0.305 186.91 2.853 193.838 2.423 202.511 2.369 204.255 2.665 205.744 3.136 206.154 5.219 208.361 2.181 212.672 2.504 217.342 23.874 249.262 47.058 227.195 68.951 241.872 74.637 231.608 70.363 245.516 72.634 243.36 74.408 240.846 75.698 251.263 77.701 245.362 78.01 243.668 77.54 239.665 78.642 240.435 79.22 240.846 79.73 240.743 79.811 238.382 79.932 234.841 78.87 237.048 78.588 235.201 81.639 225.861 80.886 248.081 83.749 247.158 83.615 244.438 82.781 240.538 84.488 241.051 86.182 237.151 86.235 233.918 87.741 242.693 87.794 244.592 88.063 245.926 88.493 246.85 93.197 237.305 97.874 250.237 102.807 245.926 105.831 241.205 108.734 248.492 111.798 246.696 112.873 245.259 113.962 242.693 114.997 247.004 127.671 247.928 141.178 244.079 153.194 247.158 185.302 241.41 219.614 249.518 253.47 241.923 261.453 238.998 269.746 234.841 277.527 231.506 277.527 231.506 283.831 222.371 283.831 181.316S285.175 145.393 285.376 112.703C285.578 80.013 286.519 78.679 285.175 53.02Z" opacity="1" fill="#000000" data-fill-palette-color="tertiary"></path><g transform="matrix(1,0,0,1,55.76832,26.230666666666668)"><svg width="174.34774810710985" viewBox="0.66 -33.79 39.45 44.06999999999999" height="194.73866666666666" data-palette-color="#ffffff"><path d="M7.74-24.24L7.74-24.24 17.97-24.24Q17.09-20.41 15.8-12.35 14.5-4.3 14.01-0.02L14.01-0.02Q13.4 5.49 10.27 7.89 7.13 10.28 0.66 10.28L0.66 10.28Q1.95 5.88 3.49-4.93 5.03-15.75 5.62-22.63L5.62-22.63Q5.62-22.95 6.4-23.6 7.18-24.24 7.74-24.24ZM16.82-27.54L16.82-27.54 6.62-27.54Q7.08-29.42 7.23-31.23L7.23-31.23Q7.23-31.57 8.01-32.21 8.79-32.86 9.35-32.86L9.35-32.86 19.6-32.86Q19.29-31.71 18.95-29.15L18.95-29.15Q18.95-28.81 18.18-28.17 17.41-27.54 16.82-27.54ZM35.5-1.66L35.5-1.66Q35.5-1.32 34.71-0.66 33.93 0 33.35 0L33.35 0 23.29 0Q24.36-4.59 25.77-15.33 27.17-26.07 27.71-32.18L27.71-32.18Q27.71-32.5 28.49-33.14 29.27-33.79 29.83-33.79L29.83-33.79 40.11-33.79Q38.82-28.42 37.42-18.3 36.03-8.18 35.5-1.66Z" opacity="1" transform="matrix(1,0,0,1,0,0)" fill="#ffffff" class="wordmark-text-0" data-fill-palette-color="quaternary" id="text-0"></path></svg></g></svg></g></svg></g></svg></g></svg></g><defs></defs></svg><rect width="285.8843881071099" height="247.2" fill="none" stroke="none" visibility="hidden"></rect></g></svg></g></svg>